<svg width="54" height="54" viewBox="0 0 54 54" fill="none" xmlns="http://www.w3.org/2000/svg">
<path d="M2.25 2.25H11.25L17.28 32.3775C17.4858 33.4134 18.0493 34.3439 18.872 35.0062C19.6947 35.6684 20.7241 36.0202 21.78 36H43.65C44.7059 36.0202 45.7353 35.6684 46.558 35.0062C47.3807 34.3439 47.9442 33.4134 48.15 32.3775L51.75 13.5H13.5M22.5 47.25C22.5 48.4926 21.4926 49.5 20.25 49.5C19.0074 49.5 18 48.4926 18 47.25C18 46.0074 19.0074 45 20.25 45C21.4926 45 22.5 46.0074 22.5 47.25ZM47.25 47.25C47.25 48.4926 46.2426 49.5 45 49.5C43.7574 49.5 42.75 48.4926 42.75 47.25C42.75 46.0074 43.7574 45 45 45C46.2426 45 47.25 46.0074 47.25 47.25Z" stroke="#101828" stroke-width="2" stroke-linecap="round" stroke-linejoin="round"/>
</svg>
